PathFileType	4	(X/Y/Z)	/Users/itak/Documents/Research/Walk-IL/dataset/trc/00033_00004.trc
DataRate	CameraRate	NumFrames	NumMarkers	Units	OrigDataRate	OrigDataStartFrame	OrigNumFrames
100.000000	100.000000	4	53	mm	100.000000	310	829
Frame#	Time	RPSI			LPSI			L3			STRN			T10			C7			CLAV			RBAK			LBAK			LSHO			LUPA			LAEL			LAOL			LWTS			LWPS			LFRA			LIFD			LHPS			LHTS			RSHO			RUPA			RAEL			RAOL			RWTS			RWPS			RFRA			RIFD			RHTS			RHPS			RBHD			LFHD			RFHD			LBHD			LHIP			RHIP			RASI			LASI			LKNE			LTHI			LANK			LTIP			LTOE			LMT1			LMT5			LHEE			RKNE			RTHI			RANK			RTIP			RTOE			RMT1			RMT5			RHEE			
		X1	Y1	Z1	X2	Y2	Z2	X3	Y3	Z3	X4	Y4	Z4	X5	Y5	Z5	X6	Y6	Z6	X7	Y7	Z7	X8	Y8	Z8	X9	Y9	Z9	X10	Y10	Z10	X11	Y11	Z11	X12	Y12	Z12	X13	Y13	Z13	X14	Y14	Z14	X15	Y15	Z15	X16	Y16	Z16	X17	Y17	Z17	X18	Y18	Z18	X19	Y19	Z19	X20	Y20	Z20	X21	Y21	Z21	X22	Y22	Z22	X23	Y23	Z23	X24	Y24	Z24	X25	Y25	Z25	X26	Y26	Z26	X27	Y27	Z27	X28	Y28	Z28	X29	Y29	Z29	X30	Y30	Z30	X31	Y31	Z31	X32	Y32	Z32	X33	Y33	Z33	X34	Y34	Z34	X35	Y35	Z35	X36	Y36	Z36	X37	Y37	Z37	X38	Y38	Z38	X39	Y39	Z39	X40	Y40	Z40	X41	Y41	Z41	X42	Y42	Z42	X43	Y43	Z43	X44	Y44	Z44	X45	Y45	Z45	X46	Y46	Z46	X47	Y47	Z47	X48	Y48	Z48	X49	Y49	Z49	X50	Y50	Z50	X51	Y51	Z51	X52	Y52	Z52	X53	Y53	Z53	

311	3.1	-402.9352111816406	1038.439819335938	124.7388534545898	-562.8770751953125	1043.994873046875	95.16521453857422	-493.2099304199219	1103.954711914062	110.8362579345703	-411.4281921386719	1280.351318359375	-111.0371551513672	-501.0611877441406	1248.855712890625	125.2016906738281	-474.2394714355469	1512.96435546875	60.70750045776367	-418.7042541503906	1408.827880859375	-78.08536529541016	-432.4034118652344	1375.472778320312	148.1348876953125	-574.406982421875	1481.028198242188	45.35537338256836	-603.9118041992188	1482.4755859375	-76.17441558837891	-704.9029541015625	1374.155517578125	-78.48596954345703	-772.7770385742188	1170.515258789062	-107.9372634887695	-720.2506103515625	1137.543579101562	-19.6268424987793	-694.5652465820312	934.7005004882812	-217.3438873291016	-773.1808471679688	914.318115234375	-181.2763061523438	-781.9952392578125	1062.466552734375	-148.6083526611328	-677.08544921875	758.023193359375	-279.1166076660156	-760.1083984375	834.9583740234375	-233.4855651855469	-699.4595336914062	851.473388671875	-266.3646545410156	-287.1484069824219	1480.197631835938	58.29188537597656	-236.1659240722656	1410.247924804688	105.8052215576172	-251.0501251220703	1153.721557617188	187.4878540039062	-338.7243041992188	1128.204467773438	147.0118560791016	-235.2882232666016	889.41845703125	67.41458892822266	-205.0800476074219	872.2216796875	153.4104461669922	-235.3089141845703	1074.80712890625	188.6028442382812	-267.2189331054688	711.3129272460938	37.61526489257812	-221.0709991455078	780.1880493164062	41.04086685180664	-201.1241149902344	769.026123046875	113.0709609985352	-471.4660339355469	1694.408935546875	-65.87567901611328	-259.64892578125	1656.88525390625	-99.5306396484375	-325.7230529785156	1667.836303710938	-171.1922454833984	-370.1597900390625	1673.134033203125	35.09466171264648	-658.0441284179688	945.7239379882812	-12.81657695770264	-285.5681457519531	918.6074829101562	29.85489082336426	-341.5408630371094	953.3925170898438	-80.23577117919922	-571.622802734375	979.2074584960938	-121.0281524658203	-653.8090209960938	502.6492919921875	10.53961563110352	-673.180908203125	643.747802734375	7.614685535430908	-729.2810668945312	50.36191177368164	197.9174652099609	-711.0303955078125	289.0116577148438	128.3589782714844	-616.7810668945312	41.08835983276367	1.194429039955139	-614.2435913085938	49.23341369628906	63.20576095581055	-722.3809814453125	39.64546203613281	73.19910430908203	-697.6705322265625	63.71687698364258	277.6950378417969	-291.8116149902344	535.5917358398438	-167.7397766113281	-271.0968017578125	773.1863403320312	-35.13177490234375	-389.4596862792969	47.40421295166016	-221.2237396240234	-306.75048828125	408.7103271484375	-183.1929779052734	-294.6871643066406	101.9317932128906	-427.0555114746094	-354.9859924316406	95.11940002441406	-391.7572631835938	-287.1434936523438	70.96895599365234	-328.0810241699219	-458.1125183105469	43.86631774902344	-203.7667083740234	
312	3.11	-400.7929382324219	1036.52783203125	116.5745162963867	-560.5452270507812	1042.360717773438	86.49311065673828	-490.9332275390625	1102.48095703125	102.4706802368164	-407.6840515136719	1278.505004882812	-119.3873062133789	-498.77001953125	1247.419799804688	116.4421310424805	-471.2964782714844	1511.375	51.6750602722168	-414.9343872070312	1407.032592773438	-86.57696533203125	-430.1068420410156	1373.875244140625	139.4734039306641	-571.5106811523438	1479.55908203125	35.59738922119141	-600.1152954101562	1480.806274414062	-86.14459991455078	-700.8605346679688	1372.254638671875	-89.02185821533203	-767.8067626953125	1168.232299804688	-118.8377685546875	-715.7803955078125	1135.403930664062	-30.1903190612793	-685.96630859375	933.799560546875	-228.2467041015625	-764.7243041992188	912.3631591796875	-193.1775817871094	-775.5527954101562	1060.4140625	-159.9534759521484	-665.8591918945312	757.61572265625	-290.6769714355469	-750.2713012695312	833.401611328125	-245.6021118164062	-689.4212036132812	850.7857055664062	-277.721923828125	-284.2921142578125	1478.328002929688	50.5793571472168	-233.6665191650391	1408.355834960938	98.47665405273438	-249.3748626708984	1151.9326171875	180.3965148925781	-336.7868347167969	1126.4150390625	139.1385192871094	-233.2560424804688	887.7194213867188	60.30797576904297	-203.4386749267578	870.4202270507812	146.4147033691406	-233.6802673339844	1072.979248046875	181.5993347167969	-264.9032897949219	709.7545166015625	30.07412910461426	-218.9678344726562	778.5265502929688	33.93281555175781	-199.4017944335938	767.2568359375	105.9997100830078	-467.3578186035156	1692.648803710938	-75.13397979736328	-255.3036193847656	1654.845703125	-106.7671585083008	-320.7047424316406	1665.877685546875	-179.0644073486328	-367.1365051269531	1671.314819335938	26.9638671875	-655.5767211914062	944.6598510742188	-21.70075035095215	-283.1853332519531	916.6149291992188	21.85369873046875	-338.8075866699219	951.4782104492188	-88.39701080322266	-568.8386840820312	977.8356323242188	-129.843505859375	-652.4913330078125	502.3385009765625	6.129172801971436	-671.4915771484375	643.3809204101562	1.769067049026489	-729.4356689453125	51.63935852050781	197.5362243652344	-710.6090087890625	289.8936767578125	126.0718841552734	-616.7794799804688	41.05205917358398	1.158185720443726	-614.3627319335938	49.43703842163086	63.06838226318359	-722.5409545898438	39.49858093261719	72.87503814697266	-697.918701171875	65.7894287109375	277.2525329589844	-289.8933715820312	533.4264526367188	-174.0521087646484	-268.9891967773438	770.8146362304688	-42.60329437255859	-378.450927734375	46.48455429077148	-244.8669586181641	-303.0226135253906	407.5960693359375	-192.7291564941406	-281.7334594726562	109.6594696044922	-447.3235778808594	-342.419677734375	100.7583084106445	-413.2649230957031	-275.2495727539062	74.91226959228516	-349.5944519042969	-447.3211975097656	41.42238616943359	-228.4167175292969	
313	3.12	-398.4420776367188	1034.614135742188	108.3279647827148	-558.0126953125	1040.766479492188	77.76328277587891	-488.4600219726562	1101.045043945312	94.07354736328125	-403.7348937988281	1276.7001953125	-127.7794799804688	-496.2583923339844	1246.007202148438	107.6729507446289	-468.1341247558594	1509.812866210938	42.62530136108398	-410.9718017578125	1405.27734375	-95.09837341308594	-427.5989074707031	1372.306640625	130.7765960693359	-568.3872680664062	1478.125	25.81896209716797	-596.0980224609375	1479.177734375	-96.12834167480469	-696.6151123046875	1370.405029296875	-99.57611083984375	-762.622802734375	1165.99560546875	-129.666259765625	-711.1665649414062	1133.360229492188	-40.62842178344727	-677.2161254882812	932.853759765625	-238.7905426025391	-756.1425170898438	910.432861328125	-204.7618255615234	-768.900146484375	1058.364624023438	-171.12548828125	-654.5219116210938	757.1290283203125	-301.6651306152344	-740.3106079101562	831.8312377929688	-257.3052062988281	-679.2376708984375	850.0169067382812	-288.6257934570312	-281.2233276367188	1476.470947265625	42.84147262573242	-230.9553527832031	1406.454467773438	91.11192321777344	-247.5055694580078	1150.113891601562	173.1820678710938	-334.6897583007812	1124.617431640625	131.1881408691406	-231.0375671386719	886.0069580078125	53.06130599975586	-201.6329040527344	868.59619140625	139.2733917236328	-231.8611145019531	1071.12451171875	174.4599761962891	-262.3688659667969	708.1884765625	22.35987854003906	-216.6835327148438	776.8618774414062	26.6695556640625	-197.512451171875	765.4633178710938	98.78713226318359	-463.0205993652344	1690.909545898438	-84.39192199707031	-250.7531585693359	1652.821899414062	-114.0089874267578	-315.4781494140625	1663.941772460938	-186.9353485107422	-363.8869323730469	1669.505493164062	18.77316284179688	-652.9171752929688	943.6812133789062	-30.63641548156738	-280.6540832519531	914.6094970703125	13.65371990203857	-335.9054870605469	949.6571655273438	-96.71181488037109	-565.8853759765625	976.5589599609375	-138.7783355712891	-651.0548706054688	502.0803527832031	1.337677359580994	-669.64404296875	643.0797119140625	-4.368956089019775	-729.5172119140625	53.05196380615234	197.1461334228516	-710.0722045898438	290.8761596679688	123.5415267944336	-616.7526245117188	41.00828170776367	1.106675863265991	-614.4903564453125	49.68466949462891	62.89204025268555	-722.659423828125	39.37787628173828	72.54213714599609	-698.0818481445312	68.09117126464844	276.7542114257812	-288.0399780273438	531.2996826171875	-180.7094116210938	-266.8873291015625	768.4633178710938	-50.44662475585938	-367.4591064453125	45.93982696533203	-266.6851806640625	-299.3231506347656	406.5253295898438	-202.1773681640625	-269.5290222167969	117.1102905273438	-465.9431457519531	-330.4695129394531	106.2287292480469	-432.9946594238281	-263.7449951171875	78.93132781982422	-369.483154296875	-436.4508666992188	39.36943054199219	-251.0705718994141	
314	3.13	-395.8880004882812	1032.724975585938	99.97088623046875	-555.2950439453125	1039.235717773438	68.93876647949219	-485.79736328125	1099.656372070312	85.607421875	-399.5724487304688	1274.960083007812	-136.2177886962891	-493.5342407226562	1244.626953125	98.87547302246094	-464.7530822753906	1508.291381835938	33.56484603881836	-406.8029479980469	1403.5859375	-103.6494598388672	-424.8952026367188	1370.775634765625	122.0599060058594	-565.0281372070312	1476.74462890625	16.03410339355469	-591.8534545898438	1477.608764648438	-106.117561340332	-692.162353515625	1368.630493164062	-110.146484375	-757.2261352539062	1163.836059570312	-140.4304656982422	-706.4295043945312	1131.43798828125	-50.95510101318359	-668.337646484375	931.8764038085938	-248.984130859375	-747.48046875	908.5529174804688	-216.0430908203125	-762.048583984375	1056.327514648438	-182.1337280273438	-643.1181030273438	756.5645141601562	-312.0758056640625	-730.254150390625	830.2642211914062	-268.5992736816406	-668.9275512695312	849.1727905273438	-299.07568359375	-277.93603515625	1474.652221679688	35.09154510498047	-228.0360260009766	1404.568725585938	83.72406768798828	-245.4400329589844	1148.2890625	165.8487854003906	-332.4257507324219	1122.838500976562	123.1654968261719	-228.6207733154297	884.3007202148438	45.6798095703125	-199.6663208007812	866.770751953125	131.9986419677734	-229.8569793701172	1069.267700195312	167.1902008056641	-259.6481628417969	706.6221313476562	14.49382972717285	-214.2104339599609	775.2081909179688	19.25787734985352	-195.4532012939453	763.6643676757812	91.44248962402344	-458.4577941894531	1689.210571289062	-93.64053344726562	-245.9989776611328	1650.837280273438	-121.2581939697266	-310.0467224121094	1662.0419921875	-194.8043975830078	-360.4014892578125	1667.728637695312	10.50568199157715	-650.0587768554688	942.7713623046875	-39.64620208740234	-277.95263671875	912.6370849609375	5.248877048492432	-332.8310852050781	947.9559936523438	-105.1907501220703	-562.7516479492188	975.3759155273438	-147.8406524658203	-649.4825439453125	501.8392028808594	-3.87083888053894	-667.60400390625	642.8051147460938	-10.84097957611084	-729.5472412109375	54.60686492919922	196.7281799316406	-709.4136962890625	291.9397583007812	120.7414779663086	-616.7058715820312	40.96083831787109	1.04125702381134	-614.6299438476562	49.97890472412109	62.67385101318359	-722.7269897460938	39.27876663208008	72.20198822021484	-698.1700439453125	70.62608337402344	276.1957092285156	-286.1457824707031	529.2915649414062	-187.7482299804688	-264.7425231933594	766.2028198242188	-58.67077255249023	-356.8104553222656	45.63928604125977	-286.5523681640625	-295.6138610839844	405.4900207519531	-211.5397644042969	-258.0931091308594	123.9446792602539	-482.809814453125	-319.2096862792969	111.2483062744141	-450.8836669921875	-252.7857208251953	82.77796936035156	-387.5599975585938	-425.8556518554688	37.626953125	-271.6645812988281	
